<svg width="1024" height="1024" viewBox="0 0 1024 1024" fill="none" xmlns="http://www.w3.org/2000/svg">
<rect width="1024" height="1024" rx="275" fill="white"/>
<path d="M649.939 335.738C649.614 338.993 649.288 342.249 648.963 345.504C648.637 348.434 646.196 350.061 641.639 350.387C640.337 350.387 638.709 349.898 636.756 348.922C635.128 347.945 633.826 347.132 632.85 346.48C630.896 346.155 628.781 346.155 626.502 346.48C624.549 346.48 622.596 346.155 620.643 345.504C619.666 345.178 618.689 344.69 617.713 344.039C616.736 343.388 615.597 343.062 614.295 343.062C612.667 342.737 611.04 343.062 609.412 344.039C608.11 344.69 606.482 344.853 604.529 344.527C604.529 347.132 604.041 349.573 603.064 351.852C602.413 353.805 601.925 355.921 601.6 358.199C601.6 359.501 601.762 360.641 602.088 361.617C602.413 362.594 602.576 363.57 602.576 364.547C602.576 365.849 602.413 367.151 602.088 368.453C601.762 369.43 601.6 370.569 601.6 371.871C601.6 373.173 601.762 374.475 602.088 375.777C602.413 376.754 602.576 377.893 602.576 379.195C602.576 381.799 602.251 384.566 601.6 387.496C600.949 390.1 601.6 392.542 603.553 394.82L600.623 402.145L599.158 409.469C599.809 412.724 599.809 415.003 599.158 416.305C598.507 417.281 598.182 418.583 598.182 420.211C598.182 422.164 598.344 424.117 598.67 426.07C598.995 428.023 599.158 429.977 599.158 431.93C599.158 434.859 599.158 438.44 599.158 442.672C599.484 446.578 599.646 450.647 599.646 454.879C599.646 458.785 599.484 462.691 599.158 466.598C599.158 470.504 598.833 473.759 598.182 476.363C597.531 479.618 596.88 481.572 596.229 482.223C596.229 483.199 596.391 484.176 596.717 485.152C597.042 486.129 597.205 487.268 597.205 488.57C597.205 489.221 597.042 490.361 596.717 491.988C596.717 493.29 596.554 494.918 596.229 496.871C595.903 498.499 595.577 500.126 595.252 501.754C595.252 503.056 595.252 503.707 595.252 503.707C595.903 506.311 595.74 508.102 594.764 509.078C593.787 510.055 593.624 511.357 594.275 512.984C593.95 516.891 593.95 519.82 594.275 521.773C594.926 523.401 595.252 525.029 595.252 526.656C595.252 530.237 595.252 532.027 595.252 532.027C595.252 536.259 595.74 540.165 596.717 543.746C597.693 547.327 598.182 551.07 598.182 554.977C598.182 556.604 597.693 558.395 596.717 560.348C596.066 562.301 596.554 564.091 598.182 565.719C597.205 566.37 596.391 568.486 595.74 572.066C595.415 575.647 595.252 578.089 595.252 579.391C595.252 581.995 595.577 584.436 596.229 586.715C596.229 588.017 595.903 589.319 595.252 590.621C594.926 591.598 594.601 592.737 594.275 594.039C593.95 597.945 593.787 602.014 593.787 606.246C594.113 610.152 594.926 613.896 596.229 617.477C595.903 619.43 595.577 621.383 595.252 623.336C594.926 624.964 594.601 626.754 594.275 628.707C594.275 630.66 594.438 632.613 594.764 634.566C595.415 636.52 595.577 638.473 595.252 640.426C595.252 641.728 594.926 643.03 594.275 644.332C593.95 645.309 593.787 646.448 593.787 647.75C593.136 650.354 592.973 652.958 593.299 655.562C593.95 658.167 593.462 660.608 591.834 662.887C591.834 664.514 592.485 666.305 593.787 668.258C591.834 671.513 591.02 675.094 591.346 679C591.997 682.581 592.16 685.999 591.834 689.254C591.508 690.882 591.02 692.346 590.369 693.648C590.044 695.276 590.206 696.904 590.857 698.531C588.579 702.112 587.114 703.902 586.463 703.902C586.137 704.228 585.812 704.553 585.486 704.879C583.208 706.507 580.929 707.646 578.65 708.297C576.697 708.948 574.419 708.46 571.814 706.832C569.21 704.879 568.071 703.251 568.396 701.949C568.722 700.973 568.071 700.484 566.443 700.484C564.165 696.253 562.537 692.672 561.561 689.742C560.584 687.138 558.794 685.185 556.189 683.883C556.515 682.581 556.352 681.604 555.701 680.953C555.376 680.302 555.213 679.488 555.213 678.512C554.236 677.535 552.934 675.908 551.307 673.629C550.005 671.025 548.377 668.583 546.424 666.305C544.796 663.701 543.169 661.422 541.541 659.469C539.913 657.516 538.449 656.539 537.146 656.539C535.193 652.633 533.077 649.215 530.799 646.285C528.846 643.03 526.567 639.775 523.963 636.52C521.684 632.939 519.406 629.846 517.127 627.242C515.174 624.638 513.709 623.173 512.732 622.848C510.779 618.941 509.314 616.5 508.338 615.523C507.687 614.221 506.71 613.082 505.408 612.105C505.408 609.176 504.432 606.734 502.479 604.781C500.851 602.503 499.386 600.061 498.084 597.457C496.131 593.551 494.178 589.482 492.225 585.25C490.271 581.018 487.993 576.949 485.389 573.043C482.133 568.16 480.343 564.579 480.018 562.301C479.692 559.371 479.367 557.906 479.041 557.906C478.715 557.581 478.39 557.092 478.064 556.441C477.413 554.814 476.762 553.023 476.111 551.07C475.786 549.117 475.298 547.327 474.646 545.699C473.995 544.723 473.344 543.909 472.693 543.258C472.042 542.607 471.391 541.956 470.74 541.305C470.089 540.328 469.601 539.352 469.275 538.375C469.275 537.398 468.95 536.585 468.299 535.934C466.346 532.678 464.555 530.237 462.928 528.609C461.626 526.982 460.975 524.215 460.975 520.309C459.673 519.332 458.37 517.542 457.068 514.938C456.092 512.008 455.115 508.915 454.139 505.66C453.162 502.405 452.348 499.312 451.697 496.383C451.046 493.453 450.721 491.174 450.721 489.547C448.117 486.943 446.489 484.013 445.838 480.758C445.512 477.503 445.024 474.247 444.373 470.992C443.722 468.062 442.583 464.807 440.955 461.227C439.327 457.646 437.7 454.553 436.072 451.949C433.794 448.694 432.654 446.578 432.654 445.602C432.98 444.625 432.98 443.811 432.654 443.16C432.003 441.858 431.515 440.882 431.189 440.23C430.864 439.254 430.376 438.277 429.725 437.301C429.074 435.999 428.748 435.022 428.748 434.371C429.074 433.395 428.26 432.581 426.307 431.93C426.307 430.953 426.469 430.139 426.795 429.488C427.12 428.512 426.958 427.535 426.307 426.559C425.656 425.257 425.005 423.466 424.354 421.188C423.702 418.909 423.051 417.444 422.4 416.793C420.122 414.84 418.982 413.049 418.982 411.422C418.982 409.794 418.657 408.492 418.006 407.516C415.076 401.982 412.635 396.611 410.682 391.402C408.729 386.194 406.287 382.125 403.357 379.195C402.706 379.846 402.706 381.311 403.357 383.59C404.334 385.868 404.985 387.496 405.311 388.473C404.66 391.402 404.497 394.332 404.822 397.262C405.148 400.191 405.636 402.958 406.287 405.562C405.311 407.516 404.66 409.794 404.334 412.398C404.334 415.003 404.334 417.607 404.334 420.211C404.66 422.49 404.822 424.931 404.822 427.535C404.822 429.814 404.334 431.93 403.357 433.883C404.334 436.161 404.822 438.115 404.822 439.742C405.148 441.37 404.66 443.323 403.357 445.602C404.008 448.206 404.497 450.647 404.822 452.926C405.148 455.204 405.311 457.646 405.311 460.25C404.66 463.18 404.497 465.784 404.822 468.062C405.148 470.341 405.473 472.945 405.799 475.875C406.45 478.479 406.775 480.921 406.775 483.199C407.101 485.152 407.264 486.292 407.264 486.617C406.613 487.594 406.775 490.198 407.752 494.43C409.054 498.661 409.705 501.591 409.705 503.219C410.031 504.846 410.031 506.799 409.705 509.078C409.38 511.357 410.031 513.31 411.658 514.938C411.984 516.24 411.658 517.216 410.682 517.867C409.705 518.518 409.705 519.332 410.682 520.309C411.984 522.587 412.309 524.052 411.658 524.703C411.333 525.029 411.333 525.68 411.658 526.656C411.984 527.633 412.472 528.609 413.123 529.586C413.774 530.562 414.262 531.702 414.588 533.004C414.913 536.259 414.913 538.375 414.588 539.352C414.262 540.328 415.076 543.095 417.029 547.652C416.053 551.559 416.053 554.651 417.029 556.93C418.331 559.208 419.308 562.138 419.959 565.719C420.285 566.695 420.285 567.672 419.959 568.648C419.633 569.625 419.633 570.439 419.959 571.09C421.912 576.624 422.238 581.018 420.936 584.273C419.959 587.203 419.959 590.458 420.936 594.039C421.587 595.667 421.749 597.783 421.424 600.387C421.424 602.991 421.587 605.758 421.912 608.688C422.238 611.292 422.563 613.733 422.889 616.012C423.54 618.29 424.354 619.755 425.33 620.406C424.354 623.01 424.191 625.777 424.842 628.707C425.818 631.311 426.632 633.915 427.283 636.52C427.609 638.473 427.609 640.589 427.283 642.867C427.283 645.146 427.609 647.099 428.26 648.727C428.26 650.029 428.26 651.493 428.26 653.121C428.585 654.423 428.911 656.051 429.236 658.004C429.562 659.632 429.887 661.259 430.213 662.887C430.538 664.514 430.701 665.816 430.701 666.793C430.701 668.421 431.027 669.56 431.678 670.211C432.329 670.536 432.98 671.188 433.631 672.164C432.003 673.792 431.678 675.582 432.654 677.535C433.631 679.163 433.631 681.279 432.654 683.883C434.607 684.534 436.886 684.697 439.49 684.371C442.094 684.371 444.373 685.185 446.326 686.812C448.605 686.161 450.07 685.673 450.721 685.348C451.372 685.348 451.86 685.348 452.186 685.348C452.511 685.348 452.674 685.51 452.674 685.836C452.999 686.161 453.813 686.487 455.115 686.812C459.021 686.487 461.463 686.975 462.439 688.277C463.416 689.579 464.718 690.23 466.346 690.23C466.346 691.858 466.183 693.323 465.857 694.625C465.532 695.927 465.695 697.229 466.346 698.531C465.695 699.182 464.718 699.996 463.416 700.973C462.114 701.949 460.649 702.763 459.021 703.414C457.719 704.391 456.417 704.879 455.115 704.879C453.813 705.204 452.674 704.879 451.697 703.902C450.395 703.577 449.419 703.577 448.768 703.902C448.117 704.553 447.303 704.879 446.326 704.879C444.048 703.577 441.281 702.6 438.025 701.949C435.421 701.624 432.817 701.786 430.213 702.438C427.609 703.414 425.005 703.902 422.4 703.902C421.098 703.902 419.959 703.577 418.982 702.926C418.006 702.6 416.867 702.275 415.564 701.949C414.262 701.949 412.96 702.275 411.658 702.926C410.356 703.577 409.38 703.089 408.729 701.461C407.426 702.438 405.962 702.926 404.334 702.926C402.706 702.926 401.079 702.763 399.451 702.438C397.824 702.438 396.359 702.438 395.057 702.438C393.755 702.438 392.941 702.926 392.615 703.902C390.337 702.926 386.756 702.275 381.873 701.949C377.316 701.624 372.433 701.461 367.225 701.461C362.016 701.461 356.808 701.461 351.6 701.461C346.717 701.461 342.811 701.461 339.881 701.461C338.253 701.135 336.463 700.81 334.51 700.484C332.557 700.159 330.766 700.159 329.139 700.484C327.186 700.81 325.07 701.461 322.791 702.438C320.838 703.414 318.885 704.228 316.932 704.879C314.979 705.855 313.025 706.507 311.072 706.832C309.119 707.483 307.166 707.483 305.213 706.832C303.585 704.228 302.609 701.949 302.283 699.996C302.283 698.043 302.609 695.764 303.26 693.16C305.864 692.835 307.98 692.184 309.607 691.207C311.561 690.556 313.514 689.742 315.467 688.766C317.42 687.789 319.536 686.975 321.814 686.324C324.419 685.673 327.674 685.51 331.58 685.836C333.208 685.836 334.51 685.673 335.486 685.348C336.788 685.022 338.253 685.185 339.881 685.836C339.23 684.208 339.23 682.743 339.881 681.441C340.532 680.465 340.857 679.163 340.857 677.535C340.857 676.559 340.532 675.582 339.881 674.605C339.23 673.629 338.904 672.49 338.904 671.188C338.904 669.885 338.904 668.095 338.904 665.816C339.23 663.538 339.393 661.096 339.393 658.492C339.393 655.888 339.23 653.609 338.904 651.656C338.904 649.378 338.579 647.75 337.928 646.773C339.881 645.146 340.532 643.193 339.881 640.914C339.23 638.635 338.904 636.682 338.904 635.055C338.904 633.427 339.23 631.962 339.881 630.66C340.532 629.033 340.857 627.405 340.857 625.777C340.857 624.801 340.695 623.824 340.369 622.848C340.044 621.546 339.881 620.406 339.881 619.43C339.881 618.453 340.044 617.639 340.369 616.988C341.02 616.012 341.508 615.035 341.834 614.059C341.834 612.431 341.508 611.129 340.857 610.152C340.532 608.85 340.532 607.385 340.857 605.758C340.857 603.479 341.02 601.363 341.346 599.41C341.997 597.132 342.648 595.016 343.299 593.062C341.997 590.784 341.671 588.505 342.322 586.227C342.973 583.948 343.299 581.669 343.299 579.391C343.624 576.461 343.462 573.531 342.811 570.602C342.485 567.346 342.485 564.254 342.811 561.324C342.811 557.743 343.136 554.326 343.787 551.07C344.438 547.49 344.601 543.909 344.275 540.328C344.601 538.375 344.438 536.747 343.787 535.445C343.462 534.143 343.299 533.004 343.299 532.027C343.624 531.051 343.95 530.074 344.275 529.098C344.926 528.121 345.252 527.307 345.252 526.656C345.252 523.076 345.089 521.122 344.764 520.797C344.438 520.471 344.275 519.983 344.275 519.332C345.577 514.449 346.229 511.682 346.229 511.031C346.229 509.078 346.066 507.288 345.74 505.66C345.415 504.033 345.577 502.242 346.229 500.289C346.88 498.661 347.368 497.197 347.693 495.895C348.019 494.267 348.67 492.639 349.646 491.012C350.298 490.361 350.46 489.547 350.135 488.57C349.809 487.594 349.646 486.617 349.646 485.641C351.274 480.432 351.762 476.689 351.111 474.41C350.786 472.132 350.623 469.853 350.623 467.574C350.949 462.04 351.274 455.53 351.6 448.043C352.251 440.556 351.111 434.371 348.182 429.488C349.158 427.861 349.646 425.908 349.646 423.629C349.972 421.025 350.298 418.746 350.623 416.793C350.298 414.514 350.46 413.375 351.111 413.375C351.762 413.375 352.251 412.561 352.576 410.934C352.576 410.283 352.413 409.469 352.088 408.492C351.762 407.19 351.6 406.214 351.6 405.562C351.274 402.307 351.274 399.215 351.6 396.285C351.925 393.03 351.925 389.775 351.6 386.52C351.6 384.241 351.437 382.288 351.111 380.66C350.786 379.033 350.949 377.079 351.6 374.801C352.251 373.173 352.413 371.708 352.088 370.406C351.762 368.779 351.6 367.151 351.6 365.523C351.6 362.919 352.413 359.664 354.041 355.758C355.669 351.526 356.157 348.434 355.506 346.48C354.855 345.178 353.553 344.365 351.6 344.039C349.646 343.388 347.368 343.062 344.764 343.062C342.485 342.737 340.044 342.737 337.439 343.062C335.161 343.062 333.533 343.062 332.557 343.062C329.627 343.062 326.372 342.9 322.791 342.574C319.536 342.249 316.443 342.411 313.514 343.062C309.933 343.388 306.678 342.9 303.748 341.598C301.144 339.97 299.354 338.342 298.377 336.715C297.4 335.087 297.563 333.622 298.865 332.32C300.167 330.693 302.934 330.042 307.166 330.367C310.747 328.74 314.49 328.251 318.396 328.902C322.303 329.553 326.046 329.065 329.627 327.438C330.604 329.391 331.906 329.879 333.533 328.902C335.486 327.926 337.277 328.089 338.904 329.391C343.462 328.74 347.693 328.251 351.6 327.926C355.506 327.275 359.738 327.763 364.295 329.391C366.248 328.089 368.689 327.763 371.619 328.414C374.874 329.065 377.641 329.391 379.92 329.391C383.826 328.74 385.942 328.577 386.268 328.902C386.919 329.228 387.57 329.391 388.221 329.391C389.848 329.065 391.15 328.577 392.127 327.926C393.429 326.949 395.382 326.786 397.986 327.438C398.963 327.763 400.102 328.577 401.404 329.879C402.706 331.181 403.683 332.158 404.334 332.809C404.334 336.064 403.846 337.691 402.869 337.691C401.893 337.691 401.567 338.18 401.893 339.156C403.195 340.133 404.171 341.435 404.822 343.062C405.473 344.365 406.613 345.504 408.24 346.48C410.193 350.712 411.984 355.107 413.611 359.664C415.239 364.221 416.704 367.802 418.006 370.406C418.657 372.034 419.471 373.499 420.447 374.801C421.749 376.103 422.726 377.568 423.377 379.195C424.354 380.823 425.005 382.613 425.33 384.566C425.981 386.52 426.632 388.473 427.283 390.426C427.934 392.379 428.911 394.332 430.213 396.285C431.84 398.238 432.654 400.517 432.654 403.121C434.933 405.4 436.235 408.004 436.561 410.934C437.212 413.863 438.351 416.63 439.979 419.234C441.281 422.164 443.071 424.931 445.35 427.535C446.326 429.163 447.303 431.279 448.279 433.883C449.256 436.487 450.232 439.091 451.209 441.695C452.186 444.299 453.162 446.741 454.139 449.02C455.441 451.298 456.743 452.926 458.045 453.902C458.045 458.134 458.696 461.715 459.998 464.645C461.626 467.249 463.09 470.341 464.393 473.922C465.044 475.224 465.206 476.526 464.881 477.828C464.555 478.805 464.718 479.944 465.369 481.246C465.369 484.176 466.02 486.943 467.322 489.547C468.624 491.826 469.764 493.616 470.74 494.918C470.089 496.871 470.252 498.987 471.229 501.266C472.205 503.544 473.019 505.66 473.67 507.613C474.646 508.59 474.972 509.892 474.646 511.52C474.646 513.147 475.135 514.612 476.111 515.914L480.018 521.285C481.32 524.866 482.622 527.796 483.924 530.074C485.551 532.027 487.016 534.143 488.318 536.422C489.62 538.375 490.76 540.491 491.736 542.77C492.713 544.723 493.038 546.025 492.713 546.676C494.015 548.954 494.503 550.419 494.178 551.07C494.178 551.721 494.34 552.372 494.666 553.023C494.992 554.326 495.805 555.79 497.107 557.418C498.41 558.72 499.386 560.022 500.037 561.324C502.641 565.556 504.757 570.113 506.385 574.996C508.012 579.553 510.128 584.111 512.732 588.668C514.36 591.272 516.15 593.876 518.104 596.48C520.382 598.759 521.847 601.526 522.498 604.781C526.079 608.362 529.008 612.268 531.287 616.5C533.566 620.732 536.821 624.15 541.053 626.754C540.727 630.009 541.704 632.613 543.982 634.566C546.261 636.194 548.214 638.147 549.842 640.426C552.446 643.03 554.887 646.611 557.166 651.168C559.445 655.4 561.886 658.98 564.49 661.91C565.792 663.538 567.094 665.165 568.396 666.793C570.024 668.095 571.489 669.56 572.791 671.188C573.768 670.536 574.256 669.723 574.256 668.746C574.256 667.444 574.256 666.467 574.256 665.816C573.279 665.165 573.117 664.189 573.768 662.887C574.744 661.585 575.232 660.445 575.232 659.469C575.883 656.865 576.372 654.423 576.697 652.145C577.023 649.866 577.186 647.424 577.186 644.82C577.186 643.193 577.023 641.565 576.697 639.938C576.372 638.31 576.209 636.682 576.209 635.055C576.535 631.799 576.86 630.172 577.186 630.172C577.511 630.172 577.837 629.846 578.162 629.195C577.837 622.359 577.511 616.337 577.186 611.129C576.86 605.921 576.86 600.712 577.186 595.504C577.511 589.319 578.162 583.134 579.139 576.949C580.115 570.764 580.441 564.579 580.115 558.395C579.79 556.767 579.301 555.465 578.65 554.488C578.325 553.186 578.162 551.721 578.162 550.094C578.813 543.909 578.65 539.514 577.674 536.91C576.697 533.98 576.209 530.888 576.209 527.633C576.535 520.471 576.697 513.473 576.697 506.637C577.023 499.475 577.511 492.477 578.162 485.641C578.488 482.06 578.976 478.805 579.627 475.875C580.278 472.62 580.604 469.202 580.604 465.621C580.278 460.738 580.115 456.832 580.115 453.902C580.441 450.647 580.766 447.392 581.092 444.137C581.417 440.882 581.417 437.789 581.092 434.859C581.092 431.93 580.766 429.814 580.115 428.512C581.743 424.931 582.231 421.025 581.58 416.793C580.929 412.236 581.58 407.678 583.533 403.121C584.184 401.493 584.184 399.866 583.533 398.238C582.882 396.285 582.557 394.495 582.557 392.867C583.859 389.612 584.347 387.496 584.021 386.52C583.696 385.543 583.533 384.729 583.533 384.078C583.533 379.521 583.37 375.126 583.045 370.895C583.045 366.663 583.208 362.431 583.533 358.199C583.533 357.548 583.696 356.734 584.021 355.758C584.347 354.456 584.51 353.479 584.51 352.828C584.184 351.201 583.37 349.898 582.068 348.922C581.092 347.62 580.929 346.155 581.58 344.527C577.674 344.853 573.442 344.853 568.885 344.527C564.327 344.202 559.77 343.876 555.213 343.551C550.656 343.225 546.098 343.388 541.541 344.039C537.309 344.365 533.403 345.504 529.822 347.457C527.869 344.853 525.916 343.551 523.963 343.551C522.335 343.225 521.359 341.435 521.033 338.18C520.708 337.203 521.033 336.064 522.01 334.762C522.986 333.46 523.8 332.483 524.451 331.832C525.102 330.204 525.753 329.065 526.404 328.414C527.055 327.763 528.195 326.786 529.822 325.484C531.775 326.135 533.729 326.461 535.682 326.461C537.635 326.135 539.588 325.81 541.541 325.484C544.145 325.484 546.424 325.81 548.377 326.461C550.656 327.112 552.934 327.438 555.213 327.438C557.817 327.438 560.258 327.112 562.537 326.461C564.816 325.81 567.257 325.484 569.861 325.484C577.348 325.484 584.835 325.81 592.322 326.461C600.135 326.786 607.785 325.973 615.271 324.02C615.597 324.671 616.574 324.996 618.201 324.996C619.829 324.996 620.968 325.159 621.619 325.484C624.874 327.763 626.99 328.74 627.967 328.414C628.943 328.089 629.92 328.089 630.896 328.414C634.803 330.042 637.57 330.693 639.197 330.367C640.825 330.042 642.29 330.204 643.592 330.855C644.894 331.507 645.87 332.483 646.521 333.785C647.498 335.087 648.637 335.738 649.939 335.738ZM376.014 344.527C375.363 345.829 374.549 347.62 373.572 349.898C372.596 352.177 371.782 354.618 371.131 357.223C370.48 359.501 369.992 361.78 369.666 364.059C369.666 366.337 369.992 368.128 370.643 369.43C370.968 371.057 370.805 372.848 370.154 374.801C369.829 376.428 370.317 377.893 371.619 379.195C369.666 381.799 369.015 385.706 369.666 390.914C370.317 395.797 370.643 399.54 370.643 402.145C369.34 405.4 368.852 407.678 369.178 408.98C369.829 409.957 369.992 411.259 369.666 412.887C369.666 413.863 369.34 414.84 368.689 415.816C368.364 416.793 368.201 417.607 368.201 418.258C367.55 419.885 367.387 421.676 367.713 423.629C368.038 425.257 368.201 426.884 368.201 428.512C366.574 430.139 366.411 432.581 367.713 435.836C369.34 438.766 370.317 441.207 370.643 443.16C370.968 444.462 370.968 445.927 370.643 447.555C370.317 448.857 370.643 449.996 371.619 450.973C370.968 452.926 370.48 455.53 370.154 458.785C369.829 461.715 369.503 464.97 369.178 468.551C368.852 471.806 368.689 475.061 368.689 478.316C368.689 481.246 369.015 483.688 369.666 485.641C368.689 489.872 367.55 492.802 366.248 494.43C365.271 495.732 364.62 497.359 364.295 499.312C364.295 500.289 364.458 501.266 364.783 502.242C365.434 502.893 365.597 503.707 365.271 504.684C365.271 505.986 364.946 507.125 364.295 508.102C363.969 509.078 363.644 510.055 363.318 511.031C363.318 512.659 363.318 514.449 363.318 516.402C363.644 518.03 363.644 519.658 363.318 521.285C363.318 524.215 362.667 528.121 361.365 533.004C360.389 537.561 360.714 541.142 362.342 543.746C361.365 544.723 360.714 547.327 360.389 551.559C360.389 555.465 360.389 559.697 360.389 564.254C360.714 568.486 360.877 572.555 360.877 576.461C360.877 580.042 360.551 582.158 359.9 582.809C360.877 585.738 361.04 588.18 360.389 590.133C360.063 591.76 359.9 593.388 359.9 595.016C360.226 598.922 360.226 601.526 359.9 602.828C359.575 603.805 359.249 604.781 358.924 605.758C358.273 609.99 357.947 614.221 357.947 618.453C358.273 622.359 358.273 626.266 357.947 630.172C357.947 632.125 357.785 634.078 357.459 636.031C357.133 637.659 356.971 639.449 356.971 641.402C356.971 644.332 357.622 646.936 358.924 649.215C357.622 653.772 356.808 656.702 356.482 658.004C356.157 658.98 355.994 660.12 355.994 661.422C356.32 663.049 356.808 664.514 357.459 665.816C358.436 667.118 358.924 668.583 358.924 670.211C357.947 674.117 357.785 677.047 358.436 679C359.412 680.628 359.249 682.581 357.947 684.859C359.9 685.51 361.854 685.51 363.807 684.859C365.76 684.534 367.713 684.534 369.666 684.859C372.921 685.185 376.014 685.673 378.943 686.324C381.873 687.301 384.965 687.789 388.221 687.789C392.127 687.464 394.243 686.975 394.568 686.324C395.219 685.999 396.033 685.836 397.01 685.836C399.288 686.161 401.567 686.487 403.846 686.812C406.124 687.464 407.589 687.789 408.24 687.789C409.542 685.836 410.844 684.859 412.146 684.859C413.774 684.859 414.913 684.534 415.564 683.883C415.564 682.255 414.913 681.279 413.611 680.953C412.635 680.628 411.984 680.139 411.658 679.488C411.007 677.861 411.007 676.396 411.658 675.094C412.309 673.466 412.635 671.839 412.635 670.211C411.984 667.932 411.821 666.467 412.146 665.816C412.472 665.165 412.635 664.514 412.635 663.863C411.333 660.283 410.844 658.492 411.17 658.492C411.495 658.492 411.658 658.167 411.658 657.516C411.658 656.865 411.007 653.935 409.705 648.727C408.729 643.518 408.403 639.124 408.729 635.543C407.101 632.613 405.962 628.544 405.311 623.336C404.985 618.128 404.66 613.733 404.334 610.152C404.334 609.176 404.334 608.199 404.334 607.223C404.66 606.246 404.66 605.107 404.334 603.805C404.008 602.177 403.52 600.549 402.869 598.922C402.218 597.294 401.893 595.667 401.893 594.039C401.893 592.737 402.055 591.598 402.381 590.621C402.706 589.319 403.032 588.017 403.357 586.715C402.055 584.111 401.567 581.344 401.893 578.414C402.218 575.159 402.218 572.066 401.893 569.137C401.567 568.16 400.916 566.533 399.939 564.254C399.288 561.65 398.963 560.022 398.963 559.371C399.614 555.79 399.614 553.186 398.963 551.559C398.312 549.931 398.637 547.978 399.939 545.699C398.312 542.77 397.335 540.979 397.01 540.328C396.684 539.352 396.359 538.375 396.033 537.398C395.057 531.214 393.917 524.703 392.615 517.867C391.313 511.031 390.337 505.172 389.686 500.289C389.686 498.661 389.686 497.034 389.686 495.406C390.011 493.453 390.011 491.663 389.686 490.035C389.36 487.757 388.872 485.641 388.221 483.688C387.57 481.409 387.244 478.967 387.244 476.363C386.919 475.061 386.919 473.759 387.244 472.457C387.895 471.155 388.221 469.853 388.221 468.551C388.221 467.574 388.058 466.598 387.732 465.621C387.407 464.645 387.244 463.831 387.244 463.18C386.919 457.971 386.756 452.763 386.756 447.555C387.081 442.346 387.244 437.138 387.244 431.93C387.244 429.977 387.081 428.023 386.756 426.07C386.43 424.117 386.268 422.164 386.268 420.211C386.268 417.607 386.593 415.165 387.244 412.887C387.895 410.608 388.221 408.167 388.221 405.562C388.221 403.284 388.058 400.191 387.732 396.285C387.407 392.379 386.593 389.449 385.291 387.496C385.942 386.194 386.105 385.055 385.779 384.078C385.779 383.102 386.268 381.799 387.244 380.172C385.617 378.544 384.965 376.754 385.291 374.801C385.942 372.522 386.268 370.406 386.268 368.453C386.268 364.872 385.617 361.292 384.314 357.711C383.338 353.805 383.338 350.061 384.314 346.48C381.059 345.178 378.292 344.527 376.014 344.527ZM690.467 627.242L702.186 629.195C704.139 630.823 705.929 632.451 707.557 634.078C709.51 635.706 711.626 637.171 713.904 638.473C714.555 640.426 715.206 642.216 715.857 643.844C716.834 645.471 717.485 647.587 717.811 650.191C717.811 652.47 717.973 654.911 718.299 657.516C718.95 660.12 719.113 662.561 718.787 664.84C718.462 666.793 717.648 668.583 716.346 670.211C715.369 671.513 715.206 673.303 715.857 675.582C713.579 675.908 711.788 676.721 710.486 678.023C709.184 679.326 707.719 680.302 706.092 680.953C704.464 681.604 702.837 681.93 701.209 681.93C699.907 681.93 698.442 682.255 696.814 682.906C693.885 683.557 690.467 684.534 686.561 685.836C682.654 687.464 679.399 686.812 676.795 683.883C675.167 683.883 673.702 683.557 672.4 682.906C671.424 682.581 670.122 682.255 668.494 681.93C666.867 680.302 665.402 678.674 664.1 677.047C663.123 675.419 661.658 673.954 659.705 672.652C659.38 669.072 658.729 665.491 657.752 661.91C657.101 658.329 657.101 654.749 657.752 651.168C658.077 649.54 658.566 648.076 659.217 646.773C660.193 645.146 660.356 643.518 659.705 641.891C661.333 641.24 662.635 640.1 663.611 638.473C664.588 636.845 665.89 635.543 667.518 634.566C669.145 633.915 670.773 633.427 672.4 633.102C674.028 632.776 675.167 631.799 675.818 630.172C677.446 630.497 678.911 630.335 680.213 629.684C681.84 629.033 683.468 628.87 685.096 629.195C686.072 628.87 686.723 628.382 687.049 627.73C687.7 627.079 688.839 626.917 690.467 627.242ZM700.232 653.609C699.907 652.958 698.605 651.656 696.326 649.703C694.373 647.75 693.071 646.611 692.42 646.285C689.49 645.309 687.049 645.146 685.096 645.797C683.468 646.448 681.678 646.611 679.725 646.285C677.446 648.889 676.469 650.354 676.795 650.68C677.12 651.005 677.12 651.493 676.795 652.145C674.842 655.074 673.865 658.004 673.865 660.934C674.191 663.538 674.842 665.654 675.818 667.281C678.748 666.305 681.678 666.467 684.607 667.77C687.537 668.746 690.467 669.234 693.396 669.234C699.256 665.328 701.535 660.12 700.232 653.609Z" fill="black"/>
</svg>
